<?xml version="1.0" encoding="UTF-8"?>
<svg width="31px" height="31px" viewBox="0 0 31 31" version="1.1" xmlns="http://www.w3.org/2000/svg" xmlns:xlink="http://www.w3.org/1999/xlink">
    <!-- Generator: Sketch 41 (35326) - http://www.bohemiancoding.com/sketch -->
    <title>back-arrow</title>
    <desc>Created with Sketch.</desc>
    <defs></defs>
    <g id="Page-1" stroke="none" stroke-width="1" fill="none" fill-rule="evenodd">
        <g id="Artboard" transform="translate(-24.000000, -30.000000)" fill="#0A0B09">
            <g id="back-arrow" transform="translate(24.000000, 30.000000)">
                <path d="M17.088,24.461 C16.915,24.461 16.746,24.36 16.654,24.2 L11.654,15.45 C11.566,15.301 11.566,15.11 11.654,14.961 L16.654,6.21 C16.79,5.971 17.096,5.881 17.336,6.021 C17.576,6.16 17.659,6.461 17.522,6.7 L12.664,15.21 L17.522,23.711 C17.659,23.95 17.576,24.25 17.336,24.391 C17.258,24.431 17.172,24.461 17.088,24.461" id="Fill-3113"></path>
                <path d="M15.213,0.21 C6.929,0.21 0.213,6.92 0.213,15.21 C0.213,23.49 6.929,30.21 15.213,30.21 C23.498,30.21 30.213,23.49 30.213,15.21 C30.213,6.92 23.498,0.21 15.213,0.21 L15.213,0.21 Z M15.213,1.211 C22.933,1.211 29.213,7.49 29.213,15.21 C29.213,22.92 22.933,29.211 15.213,29.211 C7.493,29.211 1.213,22.92 1.213,15.21 C1.213,7.49 7.493,1.211 15.213,1.211 L15.213,1.211 Z" id="Fill-3114"></path>
            </g>
        </g>
    </g>
</svg>